<svg id="Layer_1" data-name="Layer 1" xmlns="http://www.w3.org/2000/svg" viewBox="0 0 536 81.9"><defs><style>.cls-1{fill:#353554;}</style></defs><title>logo-navy</title><path class="cls-1" d="M41.3,27.1,55.4,64.3l9.9-28.9c1.3-4.1,2.2-7.3,2.4-8.1h9.9a132.44,132.44,0,0,0-5.3,12.6l-15.4,42H54.7L38.8,41.3,23.9,81.7H21.6L5.1,39.1C3.5,35,1.8,30.9,0,27.1H10.8a93.16,93.16,0,0,0,3.3,10.6l9.5,26.5L36.9,27l4.4.1Z"/><path class="cls-1" d="M87.6,53.8c-.4,10.7,7.4,20.5,18.8,20.5,6.6,0,11.1-.9,16.2-4.4v8.7c-4,.5-7.6,3.1-17.6,3.1-15.5,0-26.8-11.9-26.8-27.2,0-15.9,11.1-27.4,24.9-27.4,16.5,0,24.3,15.2,24.3,24.7a10.31,10.31,0,0,1-.2,2Zm.3-6.4h30c-.7-6.1-6.2-13.4-14.7-13.4-7.8-.1-13.5,5.8-15.3,13.4"/><path class="cls-1" d="M203,59.7V24.2c0-8.1-.1-20.5-.5-24h23.9c18.9,0,25.9,10,25.9,19.5,0,7.5-4.1,13.2-9.8,15.6,7.4,2.7,14.9,9.8,14.9,20.7,0,13.2-10.2,24.7-30.5,24.7H202.3c.5-3.6.7-13,.7-21m16.9-28.3h5.8c5.6,0,10.1-3.3,10.1-9.3,0-5.8-4.7-9.3-11.2-9.3h-4.7V31.4Zm6.5,12.3h-6.5V67.3h5.6c8.8,0,14.7-4.1,14.7-11.8.1-7.4-5.7-11.8-13.8-11.8"/><path class="cls-1" d="M291.4,25.1c15.9,0,28.9,12.6,28.9,28.3,0,15.5-13.1,28.1-28.9,28.1-16,0-28.9-12.6-28.9-28.1s12.9-28.3,28.9-28.3m0,42.5a13.77,13.77,0,0,0,13.5-14.1c0-8-6.1-14.3-13.5-14.3-7.6,0-13.5,6.3-13.5,14.3,0,7.8,5.9,14.1,13.5,14.1"/><path class="cls-1" d="M353.7,25.1c15.9,0,28.9,12.6,28.9,28.3,0,15.5-13.1,28.1-28.9,28.1-16,0-28.9-12.6-28.9-28.1s12.9-28.3,28.9-28.3m0,42.5a13.77,13.77,0,0,0,13.5-14.1c0-8-6.1-14.3-13.5-14.3-7.6,0-13.5,6.3-13.5,14.3,0,7.8,5.9,14.1,13.5,14.1"/><path class="cls-1" d="M381,0h25.1V49.7c12.8-17.3,14.6-20,16.6-23.5h17c-3.3,3.9-6.3,7.5-19.2,24.9,16.2,20.2,19.2,23.4,25.3,29.6H425.5c-1.8-2.6-5.1-6.5-19.4-23.9v12c0,4.2.2,9.3.5,11.9h-17a103.51,103.51,0,0,0,.5-11.9V10.3s.7-8.8-8.9-9.3"/><path class="cls-1" d="M457.3,56.5A15.24,15.24,0,0,0,472.7,69c6.2,0,10.2-.8,14.7-3.5V79.1c-3.9.2-8.3,2.6-17.4,2.6-16.9,0-29.2-12.2-29.2-28.1s11.5-28.3,26.5-28.3c16.2,0,26.1,13.9,26.1,27.2a14.81,14.81,0,0,1-.4,4.1H457.3v-.1Zm-.2-10.9h19.6c-.7-4.4-3.8-8.7-9.4-8.7-5.3,0-8.7,3.5-10.2,8.7"/><path class="cls-1" d="M496.2,25.8H516V38.2c2.1-7.8,7.9-13.1,14.8-13.1,3.4,0,3.8.5,5.2.5v17a14,14,0,0,0-7.9-2.4c-6.6,0-10.5,7.9-10.5,14.3V68.7c0,3.9.1,7.9.5,11.9H501c.2-4,.4-8,.4-11.9V35.2s.4-6.8-5.2-8.2Z"/><path class="cls-1" d="M169.3,0h17.1V68.7c0,4.9.1,9.1.4,12.1H177c.2-2.2.2-4.9.2-10.6a22.06,22.06,0,0,1-19.6,11.4c-14.6,0-25.8-12.3-25.8-27.3C131.8,38.9,142.9,27,158,27c8.1,0,15.4,3.5,19.2,10.7V8.2A7.25,7.25,0,0,0,169.4,1Zm-9.7,34.8c-10.1,0-18.5,8.7-18.5,19.4,0,10.9,8.2,19.8,18.6,19.8,9.9,0,17.9-8.8,17.9-19.5,0-10.9-8-19.7-18-19.7"/></svg>