<?xml version="1.0" encoding="UTF-8" standalone="no"?>
<svg
   xmlns:dc="http://purl.org/dc/elements/1.1/"
   xmlns:cc="http://creativecommons.org/ns#"
   xmlns:rdf="http://www.w3.org/1999/02/22-rdf-syntax-ns#"
   xmlns:svg="http://www.w3.org/2000/svg"
   xmlns="http://www.w3.org/2000/svg"
   viewBox="0 0 56.986668 16"
   height="16"
   width="56.986668"
   xml:space="preserve"
   id="svg2"
   version="1.1"><metadata
     id="metadata8"><rdf:RDF><cc:Work
         rdf:about=""><dc:format>image/svg+xml</dc:format><dc:type
           rdf:resource="http://purl.org/dc/dcmitype/StillImage" /></cc:Work></rdf:RDF></metadata><defs
     id="defs6" /><g
     transform="matrix(1.3333333,0,0,-1.3333333,0,16)"
     id="g10"><g
       transform="scale(0.1)"
       id="g12"><path
         id="path14"
         style="fill:#313150;fill-opacity:1;fill-rule:nonzero;stroke:none"
         d="M 32.9375,98.418 44.1836,68.75 52.0742,91.7969 c 1.0391,3.2734 1.7578,5.8203 1.9141,6.457 h 7.8945 C 60.2891,94.9805 59.0117,91.875 57.6602,88.2031 L 45.3789,54.707 H 43.6211 L 30.9414,87.0898 19.0586,54.875 H 17.2227 L 4.06641,88.8477 C 2.78906,92.1094 1.43359,95.3828 0.00390625,98.418 H 8.60938 C 9.32813,95.5469 10.207,92.6758 11.2422,89.9609 l 7.5781,-21.1328 10.6055,29.668 h 3.5117 V 98.418" /><path
         id="path16"
         style="fill:#313150;fill-opacity:1;fill-rule:nonzero;stroke:none"
         d="M 70.0938,82.2266 H 94.0195 C 93.4648,87.0898 89.0781,92.9102 82.2969,92.9102 76.0781,92.9883 71.5313,88.2813 70.0938,82.2266 m -0.2383,-5.1055 c -0.3164,-8.5352 5.9023,-16.3477 14.9961,-16.3477 5.2617,0 8.8515,0.7227 12.9179,3.5039 V 57.3438 C 94.5781,56.9453 91.707,54.875 83.7344,54.875 c -12.3594,0 -21.375,9.4922 -21.375,21.6875 0,12.6758 8.8554,21.8555 19.8594,21.8555 13.1601,0 19.3792,-12.1289 19.3792,-19.7071 0,-0.5546 -0.082,-1.2695 -0.16,-1.5898 H 69.8555 v 0" /><path
         id="path18"
         style="fill:#313150;fill-opacity:1;fill-rule:nonzero;stroke:none"
         d="m 180.551,85.1758 h -5.188 V 66.3594 h 4.469 c 7.016,0 11.719,3.2695 11.719,9.4023 0.082,5.9102 -4.547,9.4141 -11,9.4141 m -5.188,9.8047 h 4.625 c 4.469,0 8.055,2.6367 8.055,7.4215 0,4.621 -3.75,7.414 -8.93,7.414 h -3.75 z M 161.887,72.4141 v 28.3089 c 0,6.465 -0.082,16.347 -0.399,19.14 h 19.063 c 15.066,0 20.652,-7.968 20.652,-15.547 0,-5.984 -3.269,-10.5269 -7.816,-12.441 5.902,-2.1562 11.879,-7.8125 11.879,-16.5039 0,-10.5273 -8.129,-19.707 -24.321,-19.707 h -19.621 c 0.403,2.8711 0.563,10.3711 0.563,16.75" /><path
         id="path20"
         style="fill:#313150;fill-opacity:1;fill-rule:nonzero;stroke:none"
         d="m 232.379,66.1133 c 5.906,0 10.769,4.9531 10.769,11.25 0,6.3789 -4.863,11.3984 -10.769,11.3984 -6.059,0 -10.762,-5.0195 -10.762,-11.3984 0,-6.2188 4.703,-11.25 10.762,-11.25 m 0,33.8987 c 12.684,0 23.047,-10.0511 23.047,-22.5706 0,-12.3633 -10.442,-22.4101 -23.047,-22.4101 -12.758,0 -23.047,10.0468 -23.047,22.4101 0,12.4414 10.289,22.5706 23.047,22.5706" /><path
         id="path22"
         style="fill:#313150;fill-opacity:1;fill-rule:nonzero;stroke:none"
         d="m 282.063,66.1133 c 5.902,0 10.765,4.9531 10.765,11.25 0,6.3789 -4.863,11.3984 -10.765,11.3984 -6.059,0 -10.762,-5.0195 -10.762,-11.3984 0,-6.2188 4.703,-11.25 10.762,-11.25 m 0,33.8987 c 12.679,0 23.046,-10.0511 23.046,-22.5706 0,-12.3633 -10.445,-22.4101 -23.046,-22.4101 -12.758,0 -23.047,10.0468 -23.047,22.4101 0,12.4414 10.289,22.5706 23.047,22.5706" /><path
         id="path24"
         style="fill:#313150;fill-opacity:1;fill-rule:nonzero;stroke:none"
         d="m 303.836,120.031 h 20.016 c 0,-2.636 0,-7.265 0,-10.293 V 80.3906 c 10.207,13.8008 11.644,15.9492 13.242,18.7422 h 13.554 c -2.632,-3.1055 -5.027,-5.9765 -15.312,-19.8555 12.918,-16.1132 15.312,-18.6601 20.176,-23.6132 h -16.188 c -1.437,2.082 -4.066,5.1875 -15.472,19.0625 v -9.5703 c 0,-3.3477 0.16,-7.4102 0.398,-9.4922 h -13.555 c 0.317,2.082 0.395,6.3867 0.395,9.4922 v 46.6527 c 0,0 0.562,7.019 -7.094,7.421" /><path
         id="path26"
         style="fill:#313150;fill-opacity:1;fill-rule:nonzero;stroke:none"
         d="m 364.523,83.6641 h 15.629 c -0.554,3.5039 -3.031,6.9336 -7.492,6.9336 -4.23,0 -6.941,-2.793 -8.137,-6.9336 m 0.157,-8.6914 C 365.719,69.4648 370.344,65 376.965,65 c 4.941,0 8.137,0.6367 11.719,2.793 V 56.9453 c -3.11,-0.1562 -6.618,-2.0703 -13.871,-2.0703 -13.477,0 -23.286,9.7266 -23.286,22.4023 0,12.7618 9.168,22.5665 21.133,22.5665 12.914,0 20.809,-11.0821 20.809,-21.6875 0,-1.1915 -0.078,-2.7071 -0.317,-3.2618 H 364.68 v 0.0782" /><path
         id="path28"
         style="fill:#313150;fill-opacity:1;fill-rule:nonzero;stroke:none"
         d="m 395.703,99.4531 h 15.789 v -9.8906 c 1.676,6.2188 6.305,10.4495 11.805,10.4495 2.711,0 3.027,-0.4026 4.148,-0.4026 V 86.0547 c -1.515,1.0351 -3.668,1.9141 -6.3,1.9141 -5.262,0 -8.375,-6.2969 -8.375,-11.4063 V 65.2344 c 0,-3.1055 0.078,-6.2969 0.398,-9.4805 h -13.633 c 0.156,3.1836 0.317,6.375 0.317,9.4805 v 26.7187 c 0,0 0.316,5.4219 -4.149,6.543 v 0.957" /><path
         id="path30"
         style="fill:#313150;fill-opacity:1;fill-rule:nonzero;stroke:none"
         d="m 127.277,92.2773 c -8.054,0 -14.754,-6.9453 -14.754,-15.4804 0,-8.6914 6.536,-15.7813 14.832,-15.7813 7.895,0 14.274,7.0117 14.274,15.5469 0,8.6914 -6.379,15.7148 -14.352,15.7148 m 7.735,27.7537 h 13.636 v -0.801 c 0,-3.273 0,-5.82 0,-8.378 V 65.2344 c 0,-3.9063 0.079,-7.2539 0.321,-9.6485 h -7.821 c 0.165,1.7579 0.165,3.9063 0.165,8.4571 -3.512,-6.2188 -9.571,-9.0899 -15.633,-9.0899 -11.645,0 -20.575,9.8047 -20.575,21.7657 0,12.2851 8.852,21.7773 20.891,21.7773 6.461,0 12.281,-2.793 15.317,-8.5352 v 23.5271 c 0,0 0,5.742 -6.223,5.742 l -0.078,0.801" /><path
         id="path32"
         style="fill:#313150;fill-opacity:1;fill-rule:nonzero;stroke:none"
         d="M 16.0469,17.5898 V 8.33203 c 0.332,-0.03906 0.8398,-0.09765 1.5195,-0.14844 0.6719,-0.05859 1.3633,-0.08593 2.0586,-0.08593 1.0352,0 2.043,0.07812 3.0195,0.20312 0.9805,0.13672 1.8399,0.38281 2.586,0.75391 0.7422,0.35937 1.3398,0.84765 1.789,1.48441 0.4493,0.6328 0.6797,1.4453 0.6797,2.4414 0,0.8984 -0.1562,1.6601 -0.4765,2.2539 -0.3164,0.5976 -0.7657,1.0664 -1.3516,1.4179 -0.5859,0.3516 -1.2969,0.5938 -2.1445,0.7305 -0.8438,0.1289 -1.7813,0.207 -2.8203,0.207 z m 0,1.9532 h 4.457 c 0.832,0 1.6172,0.0664 2.3633,0.1836 0.7422,0.1289 1.3867,0.3515 1.9414,0.6757 0.5508,0.3204 0.9844,0.7696 1.3008,1.3165 0.3125,0.5468 0.4687,1.25 0.4687,2.1015 0,0.7617 -0.164,1.4063 -0.5078,1.9336 -0.3359,0.5274 -0.8125,0.957 -1.4336,1.2969 -0.6211,0.332 -1.3515,0.5781 -2.207,0.7148 -0.8594,0.1446 -1.8008,0.2227 -2.8359,0.2227 -0.836,0 -1.5391,-0.0195 -2.1172,-0.0664 -0.5703,-0.0508 -1.0469,-0.1094 -1.4297,-0.168 z M 19.3516,6.14453 c -0.3789,0 -0.8243,0.00781 -1.3321,0.04688 C 17.5117,6.23047 17,6.26953 16.4688,6.32813 c -0.5352,0.05078 -1.0274,0.11718 -1.5,0.20703 -0.4727,0.07812 -0.8829,0.15625 -1.2227,0.24218 V 29.3086 c 0.4102,0.1055 0.8594,0.2031 1.3555,0.293 0.4961,0.0664 1.0039,0.1367 1.5351,0.1953 0.5274,0.0586 1.0469,0.0976 1.5547,0.1172 0.5078,0.0273 0.9766,0.0273 1.4024,0.0273 1.2578,0 2.4531,-0.0976 3.5976,-0.3008 1.1328,-0.1953 2.1289,-0.539 2.9844,-1.0078 0.8594,-0.4765 1.5351,-1.1015 2.039,-1.875 0.5079,-0.7695 0.7618,-1.7383 0.7618,-2.8789 0,-1.2617 -0.3203,-2.3242 -0.9571,-3.2226 -0.6445,-0.8907 -1.5078,-1.504 -2.5859,-1.836 0.6758,-0.1562 1.293,-0.3828 1.8555,-0.6836 0.5664,-0.2929 1.0586,-0.6562 1.4882,-1.125 0.4258,-0.457 0.7618,-1.0351 0.9961,-1.6875 0.2344,-0.664 0.3516,-1.4648 0.3516,-2.3945 0,-2.207 -0.875,-3.88673 -2.6328,-5.04689 C 25.7344,6.71875 23.0234,6.14453 19.3516,6.14453" /><path
         id="path34"
         style="fill:#313150;fill-opacity:1;fill-rule:nonzero;stroke:none"
         d="m 48.1211,15.0508 c 0,2.1875 -0.5078,3.9258 -1.5156,5.2226 -1.0157,1.2891 -2.3907,1.9336 -4.1211,1.9336 -1.7344,0 -3.1133,-0.6445 -4.1211,-1.9336 -1.0156,-1.2968 -1.5195,-3.0351 -1.5195,-5.2226 0,-2.1797 0.5039,-3.918 1.5195,-5.19533 1.0078,-1.28906 2.3867,-1.92578 4.1211,-1.92578 1.7304,0 3.1054,0.63672 4.1211,1.92578 1.0078,1.27733 1.5156,3.01563 1.5156,5.19533 z m 2.332,0 c 0,-1.3672 -0.2031,-2.6172 -0.5937,-3.75 C 49.4648,10.1758 48.918,9.21875 48.2109,8.4375 47.4961,7.64844 46.6641,7.03125 45.6914,6.60156 44.7227,6.15234 43.6563,5.9375 42.4844,5.9375 c -1.1719,0 -2.2422,0.21484 -3.211,0.66406 -0.9648,0.42969 -1.8046,1.04688 -2.5117,1.83594 -0.7109,0.78125 -1.2656,1.7383 -1.6562,2.8633 -0.3946,1.1328 -0.5899,2.3828 -0.5899,3.75 0,1.375 0.1953,2.625 0.5899,3.75 0.3906,1.1328 0.9453,2.0976 1.6562,2.8906 0.7071,0.7891 1.5469,1.4141 2.5117,1.8555 0.9688,0.4375 2.0391,0.664 3.211,0.664 1.1719,0 2.2383,-0.2265 3.207,-0.664 0.9727,-0.4414 1.8047,-1.0664 2.5195,-1.8555 0.7071,-0.793 1.2539,-1.7578 1.6485,-2.8906 0.3906,-1.125 0.5937,-2.375 0.5937,-3.75" /><path
         id="path36"
         style="fill:#313150;fill-opacity:1;fill-rule:nonzero;stroke:none"
         d="m 68.4492,15.0508 c 0,2.1875 -0.5039,3.9258 -1.5195,5.2226 -1.0078,1.2891 -2.3867,1.9336 -4.1133,1.9336 -1.7383,0 -3.1133,-0.6445 -4.1289,-1.9336 -1.0078,-1.2968 -1.5156,-3.0351 -1.5156,-5.2226 0,-2.1797 0.5078,-3.918 1.5156,-5.19533 1.0156,-1.28906 2.3906,-1.92578 4.1289,-1.92578 1.7266,0 3.1055,0.63672 4.1133,1.92578 1.0156,1.27733 1.5195,3.01563 1.5195,5.19533 z m 2.3281,0 c 0,-1.3672 -0.1953,-2.6172 -0.5898,-3.75 C 69.7969,10.1758 69.2461,9.21875 68.5391,8.4375 67.8242,7.64844 66.9883,7.03125 66.0195,6.60156 65.0508,6.15234 63.9805,5.9375 62.8164,5.9375 c -1.1797,0 -2.2461,0.21484 -3.2148,0.66406 -0.9649,0.42969 -1.8047,1.04688 -2.5157,1.83594 -0.707,0.78125 -1.2578,1.7383 -1.6523,2.8633 -0.3906,1.1328 -0.5938,2.3828 -0.5938,3.75 0,1.375 0.2032,2.625 0.5938,3.75 0.3945,1.1328 0.9453,2.0976 1.6523,2.8906 0.711,0.7891 1.5508,1.4141 2.5157,1.8555 0.9687,0.4375 2.0351,0.664 3.2148,0.664 1.1641,0 2.2344,-0.2265 3.2031,-0.664 0.9688,-0.4414 1.8047,-1.0664 2.5196,-1.8555 0.707,-0.793 1.2578,-1.7578 1.6484,-2.8906 0.3945,-1.125 0.5898,-2.375 0.5898,-3.75" /><path
         id="path38"
         style="fill:#313150;fill-opacity:1;fill-rule:nonzero;stroke:none"
         d="m 80.6094,15.8516 c 0.7929,-0.5586 1.6015,-1.211 2.4101,-1.9453 0.8047,-0.7422 1.6055,-1.5313 2.3946,-2.3829 0.7851,-0.8476 1.5273,-1.73824 2.2265,-2.63668 0.6914,-0.90625 1.2891,-1.74609 1.7774,-2.54688 h -2.6367 c -0.5235,0.89844 -1.1407,1.76563 -1.836,2.61719 -0.6992,0.84766 -1.4336,1.66017 -2.1992,2.40237 -0.7656,0.7617 -1.5313,1.4531 -2.3008,2.0703 -0.7656,0.625 -1.4453,1.082 -2.0351,1.3945 V 6.33984 H 76.2148 V 32.1406 l 2.1954,0.4102 V 16.2813 c 0.4687,0.3984 1.0546,0.9453 1.7578,1.6406 0.6992,0.7031 1.4179,1.4062 2.1406,2.0976 0.7266,0.7032 1.4141,1.3868 2.0586,2.0508 0.6484,0.6563 1.1875,1.2305 1.625,1.7305 h 2.6836 c -0.5195,-0.5391 -1.1094,-1.1445 -1.7735,-1.7969 -0.6757,-0.6641 -1.371,-1.3476 -2.0937,-2.0625 -0.7227,-0.7226 -1.4414,-1.4258 -2.1445,-2.1172 -0.7032,-0.6836 -1.3868,-1.3476 -2.0547,-1.9726" /><path
         id="path40"
         style="fill:#313150;fill-opacity:1;fill-rule:nonzero;stroke:none"
         d="m 106.746,5.97656 c -0.734,1.36719 -1.445,2.80469 -2.133,4.28904 -0.691,1.4844 -1.336,2.9883 -1.933,4.5 -0.598,1.5157 -1.149,3.0469 -1.641,4.5625 -0.5,1.5235 -0.93,3.0078 -1.2812,4.4727 h 2.3282 c 0.246,-1.0742 0.562,-2.2461 0.945,-3.4883 0.379,-1.25 0.809,-2.5391 1.297,-3.875 0.485,-1.3281 1.016,-2.6875 1.602,-4.082 0.582,-1.3985 1.222,-2.77347 1.914,-4.12112 0.5,1.39453 0.945,2.70312 1.328,3.94532 0.391,1.2383 0.746,2.4687 1.078,3.6914 0.328,1.2305 0.652,2.4805 0.953,3.7695 0.309,1.2774 0.621,2.6641 0.942,4.1602 h 2.199 c -0.735,-3.2617 -1.559,-6.4453 -2.473,-9.5313 -0.91,-3.0859 -1.914,-5.91012 -2.996,-8.46872 -0.426,-1.01562 -0.863,-1.88281 -1.32,-2.60547 -0.453,-0.74218 -0.95,-1.33984 -1.508,-1.8164 -0.551,-0.468754 -1.195,-0.820316 -1.93,-1.046879 C 103.375,0.109375 102.516,0 101.52,0 100.953,0 100.441,0.0703125 99.9766,0.195313 99.5156,0.332031 99.2266,0.429688 99.1133,0.5 l 0.4414,1.82422 c 0.0859,-0.06641 0.3437,-0.16406 0.7613,-0.29297 0.414,-0.11719 0.852,-0.17578 1.301,-0.17578 0.629,0 1.203,0.07031 1.711,0.19531 0.508,0.13672 0.965,0.3711 1.371,0.69531 0.406,0.33204 0.774,0.75 1.098,1.26954 0.328,0.51562 0.644,1.17187 0.949,1.96093" /><path
         id="path42"
         style="fill:#313150;fill-opacity:1;fill-rule:nonzero;stroke:none"
         d="m 131.223,15.0508 c 0,2.1875 -0.508,3.9258 -1.52,5.2226 -1.008,1.2891 -2.387,1.9336 -4.121,1.9336 -1.73,0 -3.105,-0.6445 -4.121,-1.9336 -1.008,-1.2968 -1.516,-3.0351 -1.516,-5.2226 0,-2.1797 0.508,-3.918 1.516,-5.19533 1.016,-1.28906 2.391,-1.92578 4.121,-1.92578 1.734,0 3.113,0.63672 4.121,1.92578 1.012,1.27733 1.52,3.01563 1.52,5.19533 z m 2.328,0 c 0,-1.3672 -0.199,-2.6172 -0.59,-3.75 -0.391,-1.125 -0.941,-2.08205 -1.648,-2.8633 -0.715,-0.78906 -1.551,-1.40625 -2.524,-1.83594 -0.965,-0.44922 -2.035,-0.66406 -3.207,-0.66406 -1.172,0 -2.238,0.21484 -3.207,0.66406 -0.965,0.42969 -1.805,1.04688 -2.516,1.83594 -0.707,0.78125 -1.261,1.7383 -1.652,2.8633 -0.391,1.1328 -0.594,2.3828 -0.594,3.75 0,1.375 0.203,2.625 0.594,3.75 0.391,1.1328 0.945,2.0976 1.652,2.8906 0.711,0.7891 1.551,1.4141 2.516,1.8555 0.969,0.4375 2.035,0.664 3.207,0.664 1.172,0 2.242,-0.2265 3.207,-0.664 0.973,-0.4414 1.809,-1.0664 2.524,-1.8555 0.707,-0.793 1.257,-1.7578 1.648,-2.8906 0.391,-1.125 0.59,-2.375 0.59,-3.75" /><path
         id="path44"
         style="fill:#313150;fill-opacity:1;fill-rule:nonzero;stroke:none"
         d="m 152.395,6.95313 c -0.653,-0.1836 -1.528,-0.37891 -2.633,-0.61329 -1.102,-0.22656 -2.453,-0.33203 -4.051,-0.33203 -1.309,0 -2.402,0.19532 -3.277,0.57422 -0.875,0.3711 -1.586,0.91797 -2.125,1.61328 -0.547,0.70313 -0.93,1.55078 -1.164,2.53909 -0.235,0.9844 -0.356,2.0898 -0.356,3.2812 v 9.7852 h 2.191 v -9.082 c 0,-1.2422 0.09,-2.2852 0.274,-3.1368 0.18,-0.8672 0.473,-1.5507 0.879,-2.08981 0.398,-0.51563 0.926,-0.90625 1.566,-1.14063 C 144.344,8.11719 145.125,8 146.047,8 c 1.035,0 1.933,0.05859 2.699,0.17578 0.762,0.09766 1.25,0.20313 1.457,0.30078 V 23.8008 h 2.192 V 6.95313" /><path
         id="path46"
         style="fill:#313150;fill-opacity:1;fill-rule:nonzero;stroke:none"
         d="m 164.82,24.1406 c 0.719,0 1.403,-0.0586 2.043,-0.164 0.645,-0.1172 1.09,-0.2344 1.332,-0.3438 l -0.437,-1.8945 c -0.184,0.0976 -0.543,0.1875 -1.094,0.293 -0.555,0.0976 -1.281,0.1484 -2.18,0.1484 -0.945,0 -1.707,-0.0586 -2.281,-0.207 -0.574,-0.125 -0.949,-0.2422 -1.133,-0.3321 V 6.33984 h -2.195 V 22.9883 c 0.566,0.2461 1.344,0.5 2.332,0.7617 0.992,0.2656 2.195,0.3906 3.613,0.3906" /><path
         id="path48"
         style="fill:#313150;fill-opacity:1;fill-rule:nonzero;stroke:none"
         d="m 191.824,23.8008 c 0.203,-1.125 0.469,-2.3242 0.789,-3.5938 0.328,-1.2695 0.692,-2.5703 1.075,-3.8867 0.398,-1.3086 0.812,-2.6094 1.25,-3.8984 0.441,-1.2774 0.886,-2.48831 1.339,-3.61331 0.387,0.85938 0.789,1.88671 1.227,3.11721 0.422,1.2305 0.851,2.5195 1.281,3.8867 0.43,1.3555 0.832,2.7227 1.207,4.1211 0.367,1.375 0.68,2.6758 0.93,3.8672 h 2.16 c -0.812,-3.4297 -1.699,-6.5625 -2.66,-9.3945 -0.957,-2.8321 -2.016,-5.52739 -3.168,-8.06646 h -2.035 c -0.344,0.80079 -0.699,1.6875 -1.074,2.66407 -0.372,0.97656 -0.758,2.02339 -1.153,3.13669 -0.402,1.1133 -0.781,2.2735 -1.152,3.5039 -0.379,1.2305 -0.731,2.4922 -1.067,3.7618 -0.335,-1.2813 -0.691,-2.5313 -1.058,-3.7618 -0.371,-1.2382 -0.754,-2.4023 -1.149,-3.5156 -0.39,-1.1211 -0.777,-2.15624 -1.152,-3.14452 -0.371,-0.97657 -0.726,-1.85547 -1.062,-2.64454 h -2.106 c -1.156,2.53907 -2.211,5.24216 -3.168,8.06646 -0.957,2.8398 -1.836,5.9648 -2.648,9.3945 h 2.328 c 0.254,-1.1914 0.562,-2.4805 0.933,-3.8594 0.375,-1.3945 0.778,-2.7617 1.211,-4.1211 0.426,-1.3672 0.86,-2.6562 1.301,-3.875 0.438,-1.2109 0.852,-2.24608 1.235,-3.10546 0.429,1.1211 0.863,2.32426 1.296,3.61326 0.43,1.2891 0.836,2.5782 1.223,3.8867 0.379,1.3086 0.738,2.5977 1.074,3.8672 0.336,1.2774 0.633,2.4688 0.903,3.5938 h 1.89" /><path
         id="path50"
         style="fill:#313150;fill-opacity:1;fill-rule:nonzero;stroke:none"
         d="m 218.746,16.4766 c -0.043,1.8242 -0.473,3.2304 -1.281,4.2461 -0.813,1.0156 -1.961,1.5234 -3.449,1.5234 -0.786,0 -1.489,-0.1563 -2.106,-0.4688 -0.617,-0.3125 -1.16,-0.7421 -1.625,-1.2695 -0.457,-0.5273 -0.816,-1.1406 -1.078,-1.8359 -0.258,-0.7031 -0.41,-1.4336 -0.453,-2.1953 z m -12.391,-1.3868 c 0,1.5235 0.219,2.8594 0.653,3.9922 0.445,1.1446 1.015,2.1016 1.726,2.8633 0.711,0.7695 1.516,1.336 2.434,1.707 0.91,0.3711 1.852,0.5586 2.812,0.5586 2.145,0 3.848,-0.7031 5.125,-2.0898 1.266,-1.4063 1.903,-3.5547 1.903,-6.4648 0,-0.1758 -0.004,-0.3516 -0.02,-0.5391 -0.008,-0.1758 -0.023,-0.3516 -0.043,-0.4961 h -12.261 c 0.07,-2.1406 0.597,-3.7891 1.586,-4.9336 0.992,-1.15234 2.57,-1.72656 4.726,-1.72656 1.192,0 2.141,0.11719 2.844,0.33984 0.691,0.22656 1.199,0.42188 1.512,0.56641 l 0.406,-1.88281 c -0.317,-0.17579 -0.903,-0.39063 -1.766,-0.64454 -0.875,-0.24609 -1.89,-0.36328 -3.062,-0.36328 -1.528,0 -2.832,0.22657 -3.91,0.66407 -1.086,0.46093 -1.981,1.08593 -2.672,1.89453 -0.7,0.8125 -1.203,1.77734 -1.52,2.89064 -0.312,1.1133 -0.473,2.3359 -0.473,3.664" /><path
         id="path52"
         style="fill:#313150;fill-opacity:1;fill-rule:nonzero;stroke:none"
         d="m 238.266,20.625 c -0.203,0.1563 -0.457,0.3242 -0.758,0.5078 -0.305,0.1758 -0.66,0.3516 -1.067,0.5078 -0.402,0.1563 -0.843,0.2852 -1.316,0.3907 -0.473,0.0976 -0.961,0.1484 -1.484,0.1484 -1.078,0 -1.989,-0.1953 -2.719,-0.5781 -0.734,-0.3711 -1.32,-0.8868 -1.77,-1.5313 -0.453,-0.6445 -0.781,-1.3984 -0.98,-2.2578 -0.207,-0.8789 -0.309,-1.7969 -0.309,-2.7617 0,-2.2852 0.578,-4.0547 1.723,-5.28517 1.152,-1.23047 2.672,-1.83594 4.562,-1.83594 1.079,0 1.954,0.05078 2.618,0.15625 0.664,0.09765 1.16,0.20703 1.5,0.32422 z m 2.195,-13.73828 c -0.652,-0.23438 -1.484,-0.44141 -2.5,-0.64453 -1.012,-0.20703 -2.293,-0.30469 -3.848,-0.30469 -1.285,0 -2.445,0.20703 -3.496,0.625 -1.043,0.41016 -1.949,1.01563 -2.699,1.80859 -0.754,0.78125 -1.344,1.73831 -1.758,2.87111 -0.414,1.1211 -0.625,2.3906 -0.625,3.8086 0,1.3281 0.176,2.5469 0.528,3.6719 0.347,1.1132 0.859,2.0703 1.531,2.8789 0.676,0.8203 1.504,1.4453 2.488,1.8945 0.981,0.4492 2.094,0.6758 3.352,0.6758 1.152,0 2.144,-0.1563 2.996,-0.4883 0.843,-0.3242 1.457,-0.6367 1.836,-0.9297 v 9.3867 l 2.195,0.4102 V 6.88672" /><path
         id="path54"
         style="fill:#313150;fill-opacity:1;fill-rule:nonzero;stroke:none"
         d="m 258.625,20.625 c -0.199,0.1563 -0.453,0.3242 -0.758,0.5078 -0.301,0.1758 -0.656,0.3516 -1.062,0.5078 -0.407,0.1563 -0.844,0.2852 -1.321,0.3907 -0.472,0.0976 -0.961,0.1484 -1.484,0.1484 -1.078,0 -1.984,-0.1953 -2.719,-0.5781 -0.73,-0.3711 -1.316,-0.8868 -1.765,-1.5313 -0.457,-0.6445 -0.782,-1.3984 -0.985,-2.2578 -0.203,-0.8789 -0.304,-1.7969 -0.304,-2.7617 0,-2.2852 0.574,-4.0547 1.722,-5.28517 1.153,-1.23047 2.672,-1.83594 4.559,-1.83594 1.082,0 1.953,0.05078 2.617,0.15625 0.66,0.09765 1.164,0.20703 1.5,0.32422 z m 2.199,-13.73828 c -0.656,-0.23438 -1.484,-0.44141 -2.5,-0.64453 -1.011,-0.20703 -2.297,-0.30469 -3.847,-0.30469 -1.286,0 -2.45,0.20703 -3.497,0.625 -1.046,0.41016 -1.949,1.01563 -2.703,1.80859 -0.75,0.78125 -1.339,1.73831 -1.757,2.87111 -0.415,1.1211 -0.625,2.3906 -0.625,3.8086 0,1.3281 0.175,2.5469 0.527,3.6719 0.348,1.1132 0.859,2.0703 1.535,2.8789 0.672,0.8203 1.504,1.4453 2.484,1.8945 0.977,0.4492 2.094,0.6758 3.356,0.6758 1.152,0 2.144,-0.1563 2.992,-0.4883 0.844,-0.3242 1.461,-0.6367 1.836,-0.9297 v 9.3867 l 2.199,0.4102 V 6.88672" /><path
         id="path56"
         style="fill:#313150;fill-opacity:1;fill-rule:nonzero;stroke:none"
         d="m 269.5,6.33984 h -2.199 V 23.8008 h 2.199 z m 0.508,22.72266 c 0,-0.5078 -0.156,-0.9258 -0.473,-1.2305 -0.312,-0.3007 -0.699,-0.4492 -1.148,-0.4492 -0.449,0 -0.832,0.1485 -1.149,0.4492 -0.312,0.3047 -0.472,0.7227 -0.472,1.2305 0,0.5273 0.16,0.9297 0.472,1.2305 0.317,0.3125 0.7,0.4687 1.149,0.4687 0.449,0 0.836,-0.1562 1.148,-0.4687 0.317,-0.3008 0.473,-0.7032 0.473,-1.2305" /><path
         id="path58"
         style="fill:#313150;fill-opacity:1;fill-rule:nonzero;stroke:none"
         d="m 275.98,23.1953 c 0.653,0.1836 1.536,0.3789 2.637,0.6055 1.102,0.2344 2.453,0.3398 4.051,0.3398 1.328,0 2.437,-0.1953 3.324,-0.5742 0.891,-0.3906 1.602,-0.9297 2.129,-1.6406 0.527,-0.7031 0.906,-1.5625 1.133,-2.5508 0.226,-0.9844 0.34,-2.0781 0.34,-3.2695 V 6.33984 h -2.199 v 9.05076 c 0,1.2422 -0.082,2.2852 -0.25,3.1367 -0.168,0.8594 -0.454,1.5625 -0.844,2.0977 -0.395,0.5469 -0.914,0.9297 -1.559,1.1719 -0.637,0.2344 -1.445,0.3515 -2.41,0.3515 -1.035,0 -1.93,-0.0586 -2.687,-0.1757 -0.75,-0.1055 -1.239,-0.2032 -1.469,-0.3008 V 6.33984 H 275.98 V 23.1953" /><path
         id="path60"
         style="fill:#313150;fill-opacity:1;fill-rule:nonzero;stroke:none"
         d="m 307.215,21.6719 c -0.383,0.1172 -0.875,0.2148 -1.485,0.3203 -0.605,0.1094 -1.476,0.1562 -2.597,0.1562 -0.949,0 -1.789,-0.164 -2.516,-0.4961 -0.73,-0.3242 -1.355,-0.7812 -1.875,-1.3789 -0.523,-0.5937 -0.914,-1.3086 -1.187,-2.1367 -0.266,-0.8125 -0.403,-1.7187 -0.403,-2.7148 0,-1.1446 0.161,-2.1289 0.473,-2.9492 0.316,-0.8321 0.727,-1.4844 1.234,-2.0118 0.508,-0.51949 1.086,-0.89059 1.739,-1.12496 0.656,-0.23438 1.312,-0.35938 1.992,-0.35938 0.992,0 1.894,0.14453 2.719,0.44922 0.82,0.28125 1.457,0.62502 1.906,1.00392 z M 307.246,8.37109 C 307.117,8.25391 306.91,8.125 306.645,7.98047 c -0.27,-0.14844 -0.602,-0.30469 -1.004,-0.44922 -0.391,-0.16797 -0.84,-0.28516 -1.348,-0.39062 -0.508,-0.10938 -1.074,-0.15625 -1.703,-0.15625 -1.012,0 -1.992,0.15625 -2.938,0.47656 -0.945,0.3125 -1.773,0.80078 -2.48,1.48437 -0.711,0.67578 -1.281,1.54299 -1.707,2.61719 -0.43,1.0664 -0.645,2.3633 -0.645,3.8984 0,1.2383 0.196,2.3829 0.578,3.4454 0.379,1.0546 0.926,1.9726 1.641,2.746 0.703,0.7813 1.57,1.3946 2.598,1.8243 1.023,0.4414 2.176,0.664 3.461,0.664 1.617,0 2.922,-0.1054 3.902,-0.3203 0.977,-0.2148 1.781,-0.4219 2.41,-0.625 V 7.25781 c 0,-2.60937 -0.672,-4.47265 -2.023,-5.58593 C 306.031,0.546875 303.996,0 301.277,0 c -1.129,0 -2.148,0.078125 -3.062,0.246094 -0.906,0.175781 -1.695,0.371094 -2.348,0.59375 l 0.446,1.992186 c 0.535,-0.24219 1.273,-0.46875 2.207,-0.64453 0.937,-0.18359 1.875,-0.26172 2.82,-0.26172 2.07,0 3.574,0.39063 4.508,1.19141 0.933,0.80078 1.398,2.16797 1.398,4.10937 v 1.14453" /><path
         id="path62"
         style="fill:#313150;fill-opacity:1;fill-rule:nonzero;stroke:none"
         d="m 336.832,15.0508 c 0,2.1875 -0.508,3.9258 -1.523,5.2226 -1.008,1.2891 -2.383,1.9336 -4.114,1.9336 -1.742,0 -3.113,-0.6445 -4.121,-1.9336 -1.015,-1.2968 -1.523,-3.0351 -1.523,-5.2226 0,-2.1797 0.508,-3.918 1.523,-5.19533 1.008,-1.28906 2.379,-1.92578 4.121,-1.92578 1.731,0 3.106,0.63672 4.114,1.92578 1.015,1.27733 1.523,3.01563 1.523,5.19533 z m 2.332,0 c 0,-1.3672 -0.203,-2.6172 -0.598,-3.75 -0.39,-1.125 -0.937,-2.08205 -1.648,-2.8633 -0.711,-0.78906 -1.551,-1.40625 -2.52,-1.83594 -0.964,-0.44922 -2.039,-0.66406 -3.203,-0.66406 -1.172,0 -2.246,0.21484 -3.211,0.66406 -0.964,0.42969 -1.808,1.04688 -2.511,1.83594 -0.715,0.78125 -1.266,1.7383 -1.66,2.8633 -0.391,1.1328 -0.594,2.3828 -0.594,3.75 0,1.375 0.203,2.625 0.594,3.75 0.394,1.1328 0.945,2.0976 1.66,2.8906 0.703,0.7891 1.547,1.4141 2.511,1.8555 0.965,0.4375 2.039,0.664 3.211,0.664 1.164,0 2.239,-0.2265 3.203,-0.664 0.969,-0.4414 1.809,-1.0664 2.52,-1.8555 0.711,-0.793 1.258,-1.7578 1.648,-2.8906 0.395,-1.125 0.598,-2.375 0.598,-3.75" /><path
         id="path64"
         style="fill:#313150;fill-opacity:1;fill-rule:nonzero;stroke:none"
         d="m 344.598,23.1953 c 0.648,0.1836 1.531,0.3789 2.636,0.6055 1.102,0.2344 2.45,0.3398 4.051,0.3398 1.324,0 2.434,-0.1953 3.32,-0.5742 0.895,-0.3906 1.602,-0.9297 2.137,-1.6406 0.52,-0.7031 0.903,-1.5625 1.125,-2.5508 0.227,-0.9844 0.336,-2.0781 0.336,-3.2695 V 6.33984 h -2.195 v 9.05076 c 0,1.2422 -0.078,2.2852 -0.25,3.1367 -0.168,0.8594 -0.449,1.5625 -0.844,2.0977 -0.394,0.5469 -0.914,0.9297 -1.559,1.1719 -0.636,0.2344 -1.437,0.3515 -2.41,0.3515 -1.035,0 -1.929,-0.0586 -2.687,-0.1757 -0.75,-0.1055 -1.238,-0.2032 -1.465,-0.3008 V 6.33984 h -2.195 V 23.1953" /><path
         id="path66"
         style="fill:#313150;fill-opacity:1;fill-rule:nonzero;stroke:none"
         d="m 368.91,6.03516 c -0.742,0.01953 -1.394,0.11718 -1.941,0.29297 -0.555,0.16796 -1.016,0.42187 -1.387,0.77343 -0.371,0.35157 -0.652,0.80078 -0.844,1.35547 -0.195,0.54688 -0.289,1.24219 -0.289,2.07027 v 21.6133 l 2.199,0.4102 V 10.5977 c 0,-0.5391 0.047,-0.96879 0.153,-1.30082 0.097,-0.32032 0.254,-0.58594 0.453,-0.78125 0.203,-0.1836 0.469,-0.32032 0.797,-0.41797 0.324,-0.08985 0.711,-0.16797 1.16,-0.23438 L 368.91,6.03516" /><path
         id="path68"
         style="fill:#313150;fill-opacity:1;fill-rule:nonzero;stroke:none"
         d="m 375.969,6.33984 h -2.196 V 23.8008 h 2.196 z m 0.504,22.72266 c 0,-0.5078 -0.157,-0.9258 -0.469,-1.2305 -0.313,-0.3007 -0.699,-0.4492 -1.149,-0.4492 -0.449,0 -0.835,0.1485 -1.152,0.4492 -0.312,0.3047 -0.473,0.7227 -0.473,1.2305 0,0.5273 0.161,0.9297 0.473,1.2305 0.317,0.3125 0.703,0.4687 1.152,0.4687 0.45,0 0.836,-0.1562 1.149,-0.4687 0.312,-0.3008 0.469,-0.7032 0.469,-1.2305" /><path
         id="path70"
         style="fill:#313150;fill-opacity:1;fill-rule:nonzero;stroke:none"
         d="m 382.449,23.1953 c 0.653,0.1836 1.531,0.3789 2.637,0.6055 1.102,0.2344 2.449,0.3398 4.051,0.3398 1.324,0 2.433,-0.1953 3.328,-0.5742 0.887,-0.3906 1.594,-0.9297 2.129,-1.6406 0.519,-0.7031 0.902,-1.5625 1.133,-2.5508 0.218,-0.9844 0.332,-2.0781 0.332,-3.2695 V 6.33984 h -2.196 v 9.05076 c 0,1.2422 -0.082,2.2852 -0.254,3.1367 -0.168,0.8594 -0.449,1.5625 -0.839,2.0977 -0.399,0.5469 -0.918,0.9297 -1.555,1.1719 -0.641,0.2344 -1.445,0.3515 -2.418,0.3515 -1.031,0 -1.926,-0.0586 -2.688,-0.1757 -0.75,-0.1055 -1.238,-0.2032 -1.464,-0.3008 V 6.33984 h -2.196 V 23.1953" /><path
         id="path72"
         style="fill:#313150;fill-opacity:1;fill-rule:nonzero;stroke:none"
         d="m 413.684,16.4766 c -0.043,1.8242 -0.473,3.2304 -1.286,4.2461 -0.808,1.0156 -1.957,1.5234 -3.445,1.5234 -0.785,0 -1.488,-0.1563 -2.105,-0.4688 -0.621,-0.3125 -1.16,-0.7421 -1.625,-1.2695 -0.461,-0.5273 -0.817,-1.1406 -1.078,-1.8359 -0.262,-0.7031 -0.411,-1.4336 -0.457,-2.1953 z m -12.391,-1.3868 c 0,1.5235 0.219,2.8594 0.656,3.9922 0.442,1.1446 1.012,2.1016 1.719,2.8633 0.715,0.7695 1.523,1.336 2.437,1.707 0.911,0.3711 1.852,0.5586 2.817,0.5586 2.141,0 3.844,-0.7031 5.117,-2.0898 1.27,-1.4063 1.906,-3.5547 1.906,-6.4648 0,-0.1758 -0.004,-0.3516 -0.015,-0.5391 -0.008,-0.1758 -0.028,-0.3516 -0.047,-0.4961 h -12.262 c 0.067,-2.1406 0.594,-3.7891 1.59,-4.9336 0.988,-1.15234 2.566,-1.72656 4.723,-1.72656 1.191,0 2.14,0.11719 2.843,0.33984 0.692,0.22656 1.2,0.42188 1.512,0.56641 l 0.406,-1.88281 c -0.316,-0.17579 -0.902,-0.39063 -1.769,-0.64454 -0.871,-0.24609 -1.887,-0.36328 -3.055,-0.36328 -1.535,0 -2.836,0.22657 -3.918,0.66407 -1.082,0.46093 -1.976,1.08593 -2.668,1.89453 -0.699,0.8125 -1.203,1.77734 -1.519,2.89064 -0.313,1.1133 -0.473,2.3359 -0.473,3.664" /></g></g></svg>